<mxfile host="65bd71144e" pages="2">
    <diagram id="xbbEQTAgCI8tYSc6bjoW" name="diagrama_de_flujo_juliana_v1">
        <mxGraphModel dx="777" dy="829" grid="1" gridSize="10" guides="1" tooltips="1" connect="1" arrows="1" fold="1" page="1" pageScale="1" pageWidth="827" pageHeight="1169" math="0" shadow="0">
            <root>
                <mxCell id="0"/>
                <mxCell id="1" parent="0"/>
                <mxCell id="FXnHZkVsz2hOcZw9EoI9-1" value="" style="rounded=0;html=1;jettySize=auto;orthogonalLoop=1;fontSize=11;endArrow=block;endFill=0;endSize=8;strokeWidth=1;shadow=0;labelBackgroundColor=none;edgeStyle=orthogonalEdgeStyle;entryX=0.5;entryY=0;entryDx=0;entryDy=0;" parent="1" source="FXnHZkVsz2hOcZw9EoI9-2" target="FXnHZkVsz2hOcZw9EoI9-4" edge="1">
                    <mxGeometry relative="1" as="geometry"/>
                </mxCell>
                <mxCell id="FXnHZkVsz2hOcZw9EoI9-2" value="Inicio" style="rounded=1;whiteSpace=wrap;html=1;fontSize=12;glass=0;strokeWidth=1;shadow=0;fillColor=#dae8fc;strokeColor=#6c8ebf;" parent="1" vertex="1">
                    <mxGeometry x="869" y="160" width="120" height="40" as="geometry"/>
                </mxCell>
                <mxCell id="FXnHZkVsz2hOcZw9EoI9-3" style="edgeStyle=orthogonalEdgeStyle;rounded=0;orthogonalLoop=1;jettySize=auto;html=1;exitX=0.5;exitY=1;exitDx=0;exitDy=0;entryX=0.5;entryY=0;entryDx=0;entryDy=0;" parent="1" source="FXnHZkVsz2hOcZw9EoI9-4" target="FXnHZkVsz2hOcZw9EoI9-7" edge="1">
                    <mxGeometry relative="1" as="geometry"/>
                </mxCell>
                <mxCell id="FXnHZkVsz2hOcZw9EoI9-4" value="Acceder a la aplicación" style="rounded=1;whiteSpace=wrap;html=1;fontSize=12;glass=0;strokeWidth=1;shadow=0;fillColor=#ffe6cc;strokeColor=#d79b00;" parent="1" vertex="1">
                    <mxGeometry x="869" y="260" width="120" height="40" as="geometry"/>
                </mxCell>
                <mxCell id="FXnHZkVsz2hOcZw9EoI9-5" style="edgeStyle=orthogonalEdgeStyle;rounded=0;orthogonalLoop=1;jettySize=auto;html=1;exitX=1;exitY=0.5;exitDx=0;exitDy=0;entryX=0;entryY=0.5;entryDx=0;entryDy=0;" parent="1" source="FXnHZkVsz2hOcZw9EoI9-7" target="FXnHZkVsz2hOcZw9EoI9-8" edge="1">
                    <mxGeometry relative="1" as="geometry">
                        <mxPoint x="1039" y="380" as="targetPoint"/>
                    </mxGeometry>
                </mxCell>
                <mxCell id="FXnHZkVsz2hOcZw9EoI9-6" style="edgeStyle=orthogonalEdgeStyle;rounded=0;orthogonalLoop=1;jettySize=auto;html=1;exitX=0.5;exitY=1;exitDx=0;exitDy=0;" parent="1" source="FXnHZkVsz2hOcZw9EoI9-7" target="FXnHZkVsz2hOcZw9EoI9-14" edge="1">
                    <mxGeometry relative="1" as="geometry">
                        <mxPoint x="929" y="470" as="targetPoint"/>
                    </mxGeometry>
                </mxCell>
                <mxCell id="FXnHZkVsz2hOcZw9EoI9-7" value="Validación de credenciales" style="rhombus;whiteSpace=wrap;html=1;shadow=0;fontFamily=Helvetica;fontSize=12;align=center;strokeWidth=1;spacing=6;spacingTop=-4;fillColor=#d5e8d4;strokeColor=#82b366;" parent="1" vertex="1">
                    <mxGeometry x="879" y="340" width="100" height="80" as="geometry"/>
                </mxCell>
                <mxCell id="051UKTV471z8U81j5HlO-1" style="edgeStyle=orthogonalEdgeStyle;rounded=0;orthogonalLoop=1;jettySize=auto;html=1;exitX=1;exitY=0.5;exitDx=0;exitDy=0;entryX=1;entryY=0.5;entryDx=0;entryDy=0;" parent="1" source="FXnHZkVsz2hOcZw9EoI9-8" target="FXnHZkVsz2hOcZw9EoI9-4" edge="1">
                    <mxGeometry relative="1" as="geometry"/>
                </mxCell>
                <mxCell id="FXnHZkVsz2hOcZw9EoI9-8" value="Registro" style="rounded=1;whiteSpace=wrap;html=1;fontSize=12;glass=0;strokeWidth=1;shadow=0;fillColor=#ffe6cc;strokeColor=#d79b00;" parent="1" vertex="1">
                    <mxGeometry x="1049" y="360" width="120" height="40" as="geometry"/>
                </mxCell>
                <mxCell id="FXnHZkVsz2hOcZw9EoI9-11" style="edgeStyle=orthogonalEdgeStyle;rounded=0;orthogonalLoop=1;jettySize=auto;html=1;exitX=1;exitY=0.5;exitDx=0;exitDy=0;entryX=0;entryY=0.5;entryDx=0;entryDy=0;" parent="1" source="FXnHZkVsz2hOcZw9EoI9-14" target="FXnHZkVsz2hOcZw9EoI9-17" edge="1">
                    <mxGeometry relative="1" as="geometry"/>
                </mxCell>
                <mxCell id="FXnHZkVsz2hOcZw9EoI9-12" value="No" style="edgeLabel;html=1;align=center;verticalAlign=middle;resizable=0;points=[];" parent="FXnHZkVsz2hOcZw9EoI9-11" vertex="1" connectable="0">
                    <mxGeometry x="0.2163" y="-1" relative="1" as="geometry">
                        <mxPoint x="-12" y="-11" as="offset"/>
                    </mxGeometry>
                </mxCell>
                <mxCell id="FXnHZkVsz2hOcZw9EoI9-13" style="edgeStyle=orthogonalEdgeStyle;rounded=0;orthogonalLoop=1;jettySize=auto;html=1;exitX=0;exitY=0.5;exitDx=0;exitDy=0;" parent="1" source="FXnHZkVsz2hOcZw9EoI9-14" target="FXnHZkVsz2hOcZw9EoI9-21" edge="1">
                    <mxGeometry relative="1" as="geometry"/>
                </mxCell>
                <mxCell id="FXnHZkVsz2hOcZw9EoI9-14" value="¿Es administrador?" style="rhombus;whiteSpace=wrap;html=1;shadow=0;fontFamily=Helvetica;fontSize=12;align=center;strokeWidth=1;spacing=6;spacingTop=-4;fillColor=#d5e8d4;strokeColor=#82b366;" parent="1" vertex="1">
                    <mxGeometry x="879" y="470" width="100" height="80" as="geometry"/>
                </mxCell>
                <mxCell id="FXnHZkVsz2hOcZw9EoI9-15" style="edgeStyle=orthogonalEdgeStyle;rounded=0;orthogonalLoop=1;jettySize=auto;html=1;exitX=0.5;exitY=1;exitDx=0;exitDy=0;entryX=0.5;entryY=0;entryDx=0;entryDy=0;" parent="1" source="FXnHZkVsz2hOcZw9EoI9-17" target="FXnHZkVsz2hOcZw9EoI9-23" edge="1">
                    <mxGeometry relative="1" as="geometry"/>
                </mxCell>
                <mxCell id="FXnHZkVsz2hOcZw9EoI9-16" style="edgeStyle=orthogonalEdgeStyle;rounded=0;orthogonalLoop=1;jettySize=auto;html=1;exitX=0.5;exitY=1;exitDx=0;exitDy=0;" parent="1" source="FXnHZkVsz2hOcZw9EoI9-17" target="FXnHZkVsz2hOcZw9EoI9-67" edge="1">
                    <mxGeometry relative="1" as="geometry">
                        <mxPoint x="1389" y="610" as="targetPoint"/>
                    </mxGeometry>
                </mxCell>
                <mxCell id="FXnHZkVsz2hOcZw9EoI9-17" value="Pantalla de inicio Cliente" style="rounded=1;whiteSpace=wrap;html=1;fontSize=12;glass=0;strokeWidth=1;shadow=0;fillColor=#ffe6cc;strokeColor=#d79b00;" parent="1" vertex="1">
                    <mxGeometry x="1170" y="490" width="120" height="40" as="geometry"/>
                </mxCell>
                <mxCell id="FXnHZkVsz2hOcZw9EoI9-18" style="edgeStyle=orthogonalEdgeStyle;rounded=0;orthogonalLoop=1;jettySize=auto;html=1;exitX=0.5;exitY=1;exitDx=0;exitDy=0;" parent="1" source="FXnHZkVsz2hOcZw9EoI9-21" target="FXnHZkVsz2hOcZw9EoI9-49" edge="1">
                    <mxGeometry relative="1" as="geometry">
                        <mxPoint x="606.2857142857142" y="580" as="targetPoint"/>
                    </mxGeometry>
                </mxCell>
                <mxCell id="FXnHZkVsz2hOcZw9EoI9-19" style="edgeStyle=orthogonalEdgeStyle;rounded=0;orthogonalLoop=1;jettySize=auto;html=1;exitX=0.75;exitY=1;exitDx=0;exitDy=0;entryX=0.5;entryY=0;entryDx=0;entryDy=0;" parent="1" source="FXnHZkVsz2hOcZw9EoI9-21" target="FXnHZkVsz2hOcZw9EoI9-62" edge="1">
                    <mxGeometry relative="1" as="geometry">
                        <mxPoint x="879" y="620" as="targetPoint"/>
                    </mxGeometry>
                </mxCell>
                <mxCell id="FXnHZkVsz2hOcZw9EoI9-20" style="edgeStyle=orthogonalEdgeStyle;rounded=0;orthogonalLoop=1;jettySize=auto;html=1;exitX=0.25;exitY=1;exitDx=0;exitDy=0;entryX=0.5;entryY=0;entryDx=0;entryDy=0;" parent="1" source="FXnHZkVsz2hOcZw9EoI9-21" target="FXnHZkVsz2hOcZw9EoI9-51" edge="1">
                    <mxGeometry relative="1" as="geometry"/>
                </mxCell>
                <mxCell id="FXnHZkVsz2hOcZw9EoI9-21" value="Pantalla de inicio administrador" style="rounded=1;whiteSpace=wrap;html=1;fontSize=12;glass=0;strokeWidth=1;shadow=0;fillColor=#ffe6cc;strokeColor=#d79b00;" parent="1" vertex="1">
                    <mxGeometry x="546" y="490" width="120" height="40" as="geometry"/>
                </mxCell>
                <mxCell id="FXnHZkVsz2hOcZw9EoI9-22" style="edgeStyle=orthogonalEdgeStyle;rounded=0;orthogonalLoop=1;jettySize=auto;html=1;exitX=0.5;exitY=1;exitDx=0;exitDy=0;entryX=0.5;entryY=0;entryDx=0;entryDy=0;" parent="1" source="FXnHZkVsz2hOcZw9EoI9-23" target="FXnHZkVsz2hOcZw9EoI9-26" edge="1">
                    <mxGeometry relative="1" as="geometry"/>
                </mxCell>
                <mxCell id="oEenK_Bo5vY6mumrumCc-2" style="edgeStyle=orthogonalEdgeStyle;rounded=0;orthogonalLoop=1;jettySize=auto;html=1;exitX=0.5;exitY=1;exitDx=0;exitDy=0;" parent="1" source="FXnHZkVsz2hOcZw9EoI9-23" target="oEenK_Bo5vY6mumrumCc-1" edge="1">
                    <mxGeometry relative="1" as="geometry"/>
                </mxCell>
                <mxCell id="FXnHZkVsz2hOcZw9EoI9-23" value="Pantalla de Catalogo" style="rounded=1;whiteSpace=wrap;html=1;fontSize=12;glass=0;strokeWidth=1;shadow=0;fillColor=#ffe6cc;strokeColor=#d79b00;" parent="1" vertex="1">
                    <mxGeometry x="1049" y="595" width="120" height="40" as="geometry"/>
                </mxCell>
                <mxCell id="FXnHZkVsz2hOcZw9EoI9-24" style="edgeStyle=orthogonalEdgeStyle;rounded=0;orthogonalLoop=1;jettySize=auto;html=1;exitX=1;exitY=0.5;exitDx=0;exitDy=0;entryX=1;entryY=0.5;entryDx=0;entryDy=0;" parent="1" source="FXnHZkVsz2hOcZw9EoI9-26" target="FXnHZkVsz2hOcZw9EoI9-27" edge="1">
                    <mxGeometry relative="1" as="geometry">
                        <mxPoint x="1360" y="720.5294117647059" as="targetPoint"/>
                        <Array as="points">
                            <mxPoint x="1340" y="721"/>
                            <mxPoint x="1270" y="721"/>
                        </Array>
                    </mxGeometry>
                </mxCell>
                <mxCell id="FXnHZkVsz2hOcZw9EoI9-25" value="" style="edgeStyle=orthogonalEdgeStyle;rounded=0;orthogonalLoop=1;jettySize=auto;html=1;entryX=0.5;entryY=0;entryDx=0;entryDy=0;exitX=0.5;exitY=1;exitDx=0;exitDy=0;" parent="1" source="FXnHZkVsz2hOcZw9EoI9-26" target="FXnHZkVsz2hOcZw9EoI9-29" edge="1">
                    <mxGeometry relative="1" as="geometry">
                        <mxPoint x="1220" y="810" as="targetPoint"/>
                    </mxGeometry>
                </mxCell>
                <mxCell id="FXnHZkVsz2hOcZw9EoI9-26" value="Seleccionar producto" style="rounded=1;whiteSpace=wrap;html=1;fontSize=12;glass=0;strokeWidth=1;shadow=0;fillColor=#ffe6cc;strokeColor=#d79b00;" parent="1" vertex="1">
                    <mxGeometry x="1340" y="700" width="120" height="40" as="geometry"/>
                </mxCell>
                <mxCell id="FXnHZkVsz2hOcZw9EoI9-27" value="Agregar al carrito" style="rounded=1;whiteSpace=wrap;html=1;fontSize=12;glass=0;strokeWidth=1;shadow=0;fillColor=#ffe6cc;strokeColor=#d79b00;" parent="1" vertex="1">
                    <mxGeometry x="1181" y="700" width="120" height="40" as="geometry"/>
                </mxCell>
                <mxCell id="FXnHZkVsz2hOcZw9EoI9-28" style="edgeStyle=orthogonalEdgeStyle;rounded=0;orthogonalLoop=1;jettySize=auto;html=1;exitX=0.5;exitY=1;exitDx=0;exitDy=0;entryX=0.5;entryY=0;entryDx=0;entryDy=0;" parent="1" source="FXnHZkVsz2hOcZw9EoI9-29" target="FXnHZkVsz2hOcZw9EoI9-70" edge="1">
                    <mxGeometry relative="1" as="geometry">
                        <mxPoint x="1239.6666666666667" y="970" as="targetPoint"/>
                    </mxGeometry>
                </mxCell>
                <mxCell id="FXnHZkVsz2hOcZw9EoI9-29" value="Revisar el Carrito" style="rounded=1;whiteSpace=wrap;html=1;fontSize=12;glass=0;strokeWidth=1;shadow=0;fillColor=#ffe6cc;strokeColor=#d79b00;" parent="1" vertex="1">
                    <mxGeometry x="1180" y="870" width="120" height="40" as="geometry"/>
                </mxCell>
                <mxCell id="FXnHZkVsz2hOcZw9EoI9-30" style="edgeStyle=orthogonalEdgeStyle;rounded=0;orthogonalLoop=1;jettySize=auto;html=1;exitX=0.5;exitY=1;exitDx=0;exitDy=0;entryX=0.5;entryY=0;entryDx=0;entryDy=0;" parent="1" source="FXnHZkVsz2hOcZw9EoI9-31" target="FXnHZkVsz2hOcZw9EoI9-33" edge="1">
                    <mxGeometry relative="1" as="geometry">
                        <mxPoint x="1239.6666666666667" y="1110" as="targetPoint"/>
                    </mxGeometry>
                </mxCell>
                <mxCell id="FXnHZkVsz2hOcZw9EoI9-31" value="Finalizar seleccion" style="rounded=1;whiteSpace=wrap;html=1;fontSize=12;glass=0;strokeWidth=1;shadow=0;fillColor=#ffe6cc;strokeColor=#d79b00;" parent="1" vertex="1">
                    <mxGeometry x="1180" y="1030" width="120" height="40" as="geometry"/>
                </mxCell>
                <mxCell id="FXnHZkVsz2hOcZw9EoI9-32" style="edgeStyle=orthogonalEdgeStyle;rounded=0;orthogonalLoop=1;jettySize=auto;html=1;exitX=0.5;exitY=1;exitDx=0;exitDy=0;entryX=0.5;entryY=0;entryDx=0;entryDy=0;" parent="1" source="FXnHZkVsz2hOcZw9EoI9-33" target="FXnHZkVsz2hOcZw9EoI9-35" edge="1">
                    <mxGeometry relative="1" as="geometry">
                        <mxPoint x="1239.6666666666667" y="1190" as="targetPoint"/>
                    </mxGeometry>
                </mxCell>
                <mxCell id="FXnHZkVsz2hOcZw9EoI9-33" value="Ingresar informacion de envio" style="rounded=1;whiteSpace=wrap;html=1;fontSize=12;glass=0;strokeWidth=1;shadow=0;fillColor=#ffe6cc;strokeColor=#d79b00;" parent="1" vertex="1">
                    <mxGeometry x="1180" y="1110" width="120" height="40" as="geometry"/>
                </mxCell>
                <mxCell id="FXnHZkVsz2hOcZw9EoI9-34" style="edgeStyle=orthogonalEdgeStyle;rounded=0;orthogonalLoop=1;jettySize=auto;html=1;exitX=0.5;exitY=1;exitDx=0;exitDy=0;entryX=0.5;entryY=0;entryDx=0;entryDy=0;" parent="1" source="FXnHZkVsz2hOcZw9EoI9-35" target="FXnHZkVsz2hOcZw9EoI9-77" edge="1">
                    <mxGeometry relative="1" as="geometry"/>
                </mxCell>
                <mxCell id="FXnHZkVsz2hOcZw9EoI9-35" value="Seleccionar método de pago" style="rounded=1;whiteSpace=wrap;html=1;fontSize=12;glass=0;strokeWidth=1;shadow=0;fillColor=#ffe6cc;strokeColor=#d79b00;" parent="1" vertex="1">
                    <mxGeometry x="1180" y="1200" width="120" height="40" as="geometry"/>
                </mxCell>
                <mxCell id="FXnHZkVsz2hOcZw9EoI9-36" style="edgeStyle=orthogonalEdgeStyle;rounded=0;orthogonalLoop=1;jettySize=auto;html=1;exitX=0.5;exitY=1;exitDx=0;exitDy=0;entryX=0.5;entryY=0;entryDx=0;entryDy=0;" parent="1" source="FXnHZkVsz2hOcZw9EoI9-38" target="FXnHZkVsz2hOcZw9EoI9-40" edge="1">
                    <mxGeometry relative="1" as="geometry">
                        <mxPoint x="1240.2" y="1460" as="targetPoint"/>
                    </mxGeometry>
                </mxCell>
                <mxCell id="FXnHZkVsz2hOcZw9EoI9-38" value="Confirmar pedido" style="rounded=1;whiteSpace=wrap;html=1;fontSize=12;glass=0;strokeWidth=1;shadow=0;fillColor=#ffe6cc;strokeColor=#d79b00;" parent="1" vertex="1">
                    <mxGeometry x="1180" y="1390" width="120" height="40" as="geometry"/>
                </mxCell>
                <mxCell id="FXnHZkVsz2hOcZw9EoI9-39" style="rounded=0;orthogonalLoop=1;jettySize=auto;html=1;exitX=0.5;exitY=1;exitDx=0;exitDy=0;entryX=0.5;entryY=0;entryDx=0;entryDy=0;" parent="1" source="FXnHZkVsz2hOcZw9EoI9-40" target="FXnHZkVsz2hOcZw9EoI9-41" edge="1">
                    <mxGeometry relative="1" as="geometry">
                        <mxPoint x="1220" y="1550" as="targetPoint"/>
                    </mxGeometry>
                </mxCell>
                <mxCell id="FXnHZkVsz2hOcZw9EoI9-40" value="Recibir confirmación por correo" style="rounded=1;whiteSpace=wrap;html=1;fontSize=12;glass=0;strokeWidth=1;shadow=0;fillColor=#ffe6cc;strokeColor=#d79b00;" parent="1" vertex="1">
                    <mxGeometry x="1180" y="1470" width="120" height="40" as="geometry"/>
                </mxCell>
                <mxCell id="FXnHZkVsz2hOcZw9EoI9-41" value="Fin" style="rounded=1;whiteSpace=wrap;html=1;fontSize=12;glass=0;strokeWidth=1;shadow=0;fillColor=#dae8fc;strokeColor=#6c8ebf;" parent="1" vertex="1">
                    <mxGeometry x="1180" y="1560" width="120" height="40" as="geometry"/>
                </mxCell>
                <mxCell id="FXnHZkVsz2hOcZw9EoI9-42" value="Si" style="text;html=1;align=center;verticalAlign=middle;resizable=0;points=[];autosize=1;strokeColor=none;fillColor=none;" parent="1" vertex="1">
                    <mxGeometry x="834" y="488" width="30" height="30" as="geometry"/>
                </mxCell>
                <mxCell id="FXnHZkVsz2hOcZw9EoI9-43" value="No" style="text;html=1;align=center;verticalAlign=middle;resizable=0;points=[];autosize=1;strokeColor=none;fillColor=none;" parent="1" vertex="1">
                    <mxGeometry x="989" y="360" width="40" height="30" as="geometry"/>
                </mxCell>
                <mxCell id="FXnHZkVsz2hOcZw9EoI9-45" style="edgeStyle=orthogonalEdgeStyle;rounded=0;orthogonalLoop=1;jettySize=auto;html=1;exitX=0.5;exitY=1;exitDx=0;exitDy=0;" parent="1" source="FXnHZkVsz2hOcZw9EoI9-47" target="FXnHZkVsz2hOcZw9EoI9-53" edge="1">
                    <mxGeometry relative="1" as="geometry">
                        <mxPoint x="889.3103448275863" y="775" as="targetPoint"/>
                    </mxGeometry>
                </mxCell>
                <mxCell id="FXnHZkVsz2hOcZw9EoI9-47" value="Listar de pedidos" style="rounded=1;whiteSpace=wrap;html=1;fontSize=12;glass=0;strokeWidth=1;shadow=0;fillColor=#ffe6cc;strokeColor=#d79b00;" parent="1" vertex="1">
                    <mxGeometry x="819" y="700" width="120" height="40" as="geometry"/>
                </mxCell>
                <mxCell id="FXnHZkVsz2hOcZw9EoI9-48" style="edgeStyle=orthogonalEdgeStyle;rounded=0;orthogonalLoop=1;jettySize=auto;html=1;exitX=0.5;exitY=1;exitDx=0;exitDy=0;" parent="1" source="FXnHZkVsz2hOcZw9EoI9-49" target="FXnHZkVsz2hOcZw9EoI9-64" edge="1">
                    <mxGeometry relative="1" as="geometry"/>
                </mxCell>
                <mxCell id="FXnHZkVsz2hOcZw9EoI9-49" value="Pantalla de Productos" style="rounded=1;whiteSpace=wrap;html=1;fontSize=12;glass=0;strokeWidth=1;shadow=0;fillColor=#ffe6cc;strokeColor=#d79b00;" parent="1" vertex="1">
                    <mxGeometry x="546" y="615" width="120" height="40" as="geometry"/>
                </mxCell>
                <mxCell id="FXnHZkVsz2hOcZw9EoI9-50" style="edgeStyle=orthogonalEdgeStyle;rounded=0;orthogonalLoop=1;jettySize=auto;html=1;exitX=0.5;exitY=1;exitDx=0;exitDy=0;entryX=0.5;entryY=0;entryDx=0;entryDy=0;" parent="1" source="FXnHZkVsz2hOcZw9EoI9-51" target="FXnHZkVsz2hOcZw9EoI9-66" edge="1">
                    <mxGeometry relative="1" as="geometry"/>
                </mxCell>
                <mxCell id="FXnHZkVsz2hOcZw9EoI9-51" value="Pantalla de usuarios" style="rounded=1;whiteSpace=wrap;html=1;fontSize=12;glass=0;strokeWidth=1;shadow=0;fillColor=#ffe6cc;strokeColor=#d79b00;" parent="1" vertex="1">
                    <mxGeometry x="333" y="622.5" width="120" height="40" as="geometry"/>
                </mxCell>
                <mxCell id="FXnHZkVsz2hOcZw9EoI9-52" style="edgeStyle=orthogonalEdgeStyle;rounded=0;orthogonalLoop=1;jettySize=auto;html=1;exitX=0.5;exitY=1;exitDx=0;exitDy=0;" parent="1" source="FXnHZkVsz2hOcZw9EoI9-53" target="FXnHZkVsz2hOcZw9EoI9-55" edge="1">
                    <mxGeometry relative="1" as="geometry">
                        <mxPoint x="798.7647058823529" y="865" as="targetPoint"/>
                    </mxGeometry>
                </mxCell>
                <mxCell id="FXnHZkVsz2hOcZw9EoI9-53" value="Actualizar estado" style="rounded=1;whiteSpace=wrap;html=1;fontSize=12;glass=0;strokeWidth=1;shadow=0;fillColor=#ffe6cc;strokeColor=#d79b00;" parent="1" vertex="1">
                    <mxGeometry x="819" y="785" width="120" height="40" as="geometry"/>
                </mxCell>
                <mxCell id="FXnHZkVsz2hOcZw9EoI9-54" style="edgeStyle=orthogonalEdgeStyle;rounded=0;orthogonalLoop=1;jettySize=auto;html=1;exitX=0.5;exitY=1;exitDx=0;exitDy=0;entryX=0.5;entryY=0;entryDx=0;entryDy=0;" parent="1" source="FXnHZkVsz2hOcZw9EoI9-55" target="FXnHZkVsz2hOcZw9EoI9-60" edge="1">
                    <mxGeometry relative="1" as="geometry">
                        <mxPoint x="849" y="1005" as="targetPoint"/>
                    </mxGeometry>
                </mxCell>
                <mxCell id="FXnHZkVsz2hOcZw9EoI9-55" value="Confirmación de actualizacion" style="rounded=1;whiteSpace=wrap;html=1;fontSize=12;glass=0;strokeWidth=1;shadow=0;fillColor=#ffe6cc;strokeColor=#d79b00;" parent="1" vertex="1">
                    <mxGeometry x="819" y="880" width="120" height="40" as="geometry"/>
                </mxCell>
                <mxCell id="FXnHZkVsz2hOcZw9EoI9-60" value="Fin" style="rounded=1;whiteSpace=wrap;html=1;fontSize=12;glass=0;strokeWidth=1;shadow=0;fillColor=#dae8fc;strokeColor=#6c8ebf;" parent="1" vertex="1">
                    <mxGeometry x="589" y="1050" width="120" height="40" as="geometry"/>
                </mxCell>
                <mxCell id="FXnHZkVsz2hOcZw9EoI9-61" style="edgeStyle=orthogonalEdgeStyle;rounded=0;orthogonalLoop=1;jettySize=auto;html=1;exitX=0.5;exitY=1;exitDx=0;exitDy=0;entryX=0.5;entryY=0;entryDx=0;entryDy=0;" parent="1" source="FXnHZkVsz2hOcZw9EoI9-62" target="FXnHZkVsz2hOcZw9EoI9-47" edge="1">
                    <mxGeometry relative="1" as="geometry"/>
                </mxCell>
                <mxCell id="FXnHZkVsz2hOcZw9EoI9-62" value="Gestión pedidos" style="rounded=1;whiteSpace=wrap;html=1;fontSize=12;glass=0;strokeWidth=1;shadow=0;fillColor=#ffe6cc;strokeColor=#d79b00;" parent="1" vertex="1">
                    <mxGeometry x="819" y="612.5" width="120" height="45" as="geometry"/>
                </mxCell>
                <mxCell id="FXnHZkVsz2hOcZw9EoI9-63" style="edgeStyle=orthogonalEdgeStyle;rounded=0;orthogonalLoop=1;jettySize=auto;html=1;exitX=0.5;exitY=1;exitDx=0;exitDy=0;entryX=0.5;entryY=0;entryDx=0;entryDy=0;" parent="1" source="FXnHZkVsz2hOcZw9EoI9-64" target="FXnHZkVsz2hOcZw9EoI9-81" edge="1">
                    <mxGeometry relative="1" as="geometry">
                        <mxPoint x="621" y="820" as="targetPoint"/>
                    </mxGeometry>
                </mxCell>
                <mxCell id="FXnHZkVsz2hOcZw9EoI9-64" value="Registrar/Modificar/Inhabilitar producto" style="rounded=1;whiteSpace=wrap;html=1;fontSize=12;glass=0;strokeWidth=1;shadow=0;fillColor=#ffe6cc;strokeColor=#d79b00;" parent="1" vertex="1">
                    <mxGeometry x="524.5" y="710" width="163" height="50" as="geometry"/>
                </mxCell>
                <mxCell id="FXnHZkVsz2hOcZw9EoI9-65" style="edgeStyle=orthogonalEdgeStyle;rounded=0;orthogonalLoop=1;jettySize=auto;html=1;exitX=0.5;exitY=1;exitDx=0;exitDy=0;entryX=0.5;entryY=0;entryDx=0;entryDy=0;" parent="1" source="FXnHZkVsz2hOcZw9EoI9-66" target="FXnHZkVsz2hOcZw9EoI9-83" edge="1">
                    <mxGeometry relative="1" as="geometry"/>
                </mxCell>
                <mxCell id="FXnHZkVsz2hOcZw9EoI9-66" value="Registrar/modificar/Eliminar usuario" style="rounded=1;whiteSpace=wrap;html=1;fontSize=12;glass=0;strokeWidth=1;shadow=0;fillColor=#ffe6cc;strokeColor=#d79b00;" parent="1" vertex="1">
                    <mxGeometry x="310" y="710" width="166" height="50" as="geometry"/>
                </mxCell>
                <mxCell id="FXnHZkVsz2hOcZw9EoI9-67" value="Perfil del usuario" style="rounded=1;whiteSpace=wrap;html=1;fontSize=12;glass=0;strokeWidth=1;shadow=0;fillColor=#ffe6cc;strokeColor=#d79b00;" parent="1" vertex="1">
                    <mxGeometry x="1279" y="594" width="120" height="40" as="geometry"/>
                </mxCell>
                <mxCell id="FXnHZkVsz2hOcZw9EoI9-68" style="edgeStyle=orthogonalEdgeStyle;rounded=0;orthogonalLoop=1;jettySize=auto;html=1;exitX=0.5;exitY=1;exitDx=0;exitDy=0;entryX=0.5;entryY=0;entryDx=0;entryDy=0;" parent="1" source="FXnHZkVsz2hOcZw9EoI9-70" target="FXnHZkVsz2hOcZw9EoI9-31" edge="1">
                    <mxGeometry relative="1" as="geometry"/>
                </mxCell>
                <mxCell id="FXnHZkVsz2hOcZw9EoI9-69" style="edgeStyle=orthogonalEdgeStyle;rounded=0;orthogonalLoop=1;jettySize=auto;html=1;exitX=1;exitY=0.5;exitDx=0;exitDy=0;entryX=0;entryY=0.5;entryDx=0;entryDy=0;" parent="1" source="FXnHZkVsz2hOcZw9EoI9-70" target="FXnHZkVsz2hOcZw9EoI9-72" edge="1">
                    <mxGeometry relative="1" as="geometry">
                        <mxPoint x="1330" y="965.2857142857142" as="targetPoint"/>
                    </mxGeometry>
                </mxCell>
                <mxCell id="FXnHZkVsz2hOcZw9EoI9-70" value="¿Cambiar artículos del carrito?" style="rhombus;whiteSpace=wrap;html=1;shadow=0;fontFamily=Helvetica;fontSize=12;align=center;strokeWidth=1;spacing=6;spacingTop=-4;fillColor=#d5e8d4;strokeColor=#82b366;" parent="1" vertex="1">
                    <mxGeometry x="1190" y="925" width="100" height="80" as="geometry"/>
                </mxCell>
                <mxCell id="FXnHZkVsz2hOcZw9EoI9-71" style="edgeStyle=orthogonalEdgeStyle;rounded=0;orthogonalLoop=1;jettySize=auto;html=1;exitX=1;exitY=0.5;exitDx=0;exitDy=0;entryX=1;entryY=0.5;entryDx=0;entryDy=0;" parent="1" source="FXnHZkVsz2hOcZw9EoI9-72" target="FXnHZkVsz2hOcZw9EoI9-31" edge="1">
                    <mxGeometry relative="1" as="geometry"/>
                </mxCell>
                <mxCell id="FXnHZkVsz2hOcZw9EoI9-72" value="Modificar cantidad de articulos" style="rounded=1;whiteSpace=wrap;html=1;fontSize=12;glass=0;strokeWidth=1;shadow=0;fillColor=#ffe6cc;strokeColor=#d79b00;" parent="1" vertex="1">
                    <mxGeometry x="1330" y="945" width="120" height="40" as="geometry"/>
                </mxCell>
                <mxCell id="FXnHZkVsz2hOcZw9EoI9-73" value="Si" style="text;html=1;align=center;verticalAlign=middle;resizable=0;points=[];autosize=1;strokeColor=none;fillColor=none;" parent="1" vertex="1">
                    <mxGeometry x="1290" y="940" width="30" height="30" as="geometry"/>
                </mxCell>
                <mxCell id="FXnHZkVsz2hOcZw9EoI9-74" value="No" style="text;html=1;align=center;verticalAlign=middle;resizable=0;points=[];autosize=1;strokeColor=none;fillColor=none;" parent="1" vertex="1">
                    <mxGeometry x="1240" y="998" width="40" height="30" as="geometry"/>
                </mxCell>
                <mxCell id="FXnHZkVsz2hOcZw9EoI9-75" style="edgeStyle=orthogonalEdgeStyle;rounded=0;orthogonalLoop=1;jettySize=auto;html=1;exitX=1;exitY=0.5;exitDx=0;exitDy=0;entryX=1;entryY=0.5;entryDx=0;entryDy=0;" parent="1" source="FXnHZkVsz2hOcZw9EoI9-77" target="FXnHZkVsz2hOcZw9EoI9-29" edge="1">
                    <mxGeometry relative="1" as="geometry">
                        <Array as="points">
                            <mxPoint x="1490" y="1309"/>
                            <mxPoint x="1490" y="890"/>
                        </Array>
                    </mxGeometry>
                </mxCell>
                <mxCell id="FXnHZkVsz2hOcZw9EoI9-76" style="edgeStyle=orthogonalEdgeStyle;rounded=0;orthogonalLoop=1;jettySize=auto;html=1;exitX=0.5;exitY=1;exitDx=0;exitDy=0;entryX=0.5;entryY=0;entryDx=0;entryDy=0;" parent="1" source="FXnHZkVsz2hOcZw9EoI9-77" target="FXnHZkVsz2hOcZw9EoI9-38" edge="1">
                    <mxGeometry relative="1" as="geometry"/>
                </mxCell>
                <mxCell id="FXnHZkVsz2hOcZw9EoI9-77" value="¿Aprobado?" style="rhombus;whiteSpace=wrap;html=1;shadow=0;fontFamily=Helvetica;fontSize=12;align=center;strokeWidth=1;spacing=6;spacingTop=-4;fillColor=#d5e8d4;strokeColor=#82b366;" parent="1" vertex="1">
                    <mxGeometry x="1190" y="1269" width="100" height="80" as="geometry"/>
                </mxCell>
                <mxCell id="FXnHZkVsz2hOcZw9EoI9-78" value="No" style="text;html=1;align=center;verticalAlign=middle;resizable=0;points=[];autosize=1;strokeColor=none;fillColor=none;" parent="1" vertex="1">
                    <mxGeometry x="1290" y="1280" width="40" height="30" as="geometry"/>
                </mxCell>
                <mxCell id="FXnHZkVsz2hOcZw9EoI9-79" value="Si" style="text;html=1;align=center;verticalAlign=middle;resizable=0;points=[];autosize=1;strokeColor=none;fillColor=none;" parent="1" vertex="1">
                    <mxGeometry x="1245" y="1348" width="30" height="30" as="geometry"/>
                </mxCell>
                <mxCell id="FXnHZkVsz2hOcZw9EoI9-80" style="edgeStyle=orthogonalEdgeStyle;rounded=0;orthogonalLoop=1;jettySize=auto;html=1;exitX=0.5;exitY=1;exitDx=0;exitDy=0;" parent="1" source="FXnHZkVsz2hOcZw9EoI9-81" target="FXnHZkVsz2hOcZw9EoI9-60" edge="1">
                    <mxGeometry relative="1" as="geometry"/>
                </mxCell>
                <mxCell id="FXnHZkVsz2hOcZw9EoI9-81" value="Confirmación de acción" style="rounded=1;whiteSpace=wrap;html=1;fontSize=12;glass=0;strokeWidth=1;shadow=0;fillColor=#ffe6cc;strokeColor=#d79b00;" parent="1" vertex="1">
                    <mxGeometry x="546" y="810" width="120" height="40" as="geometry"/>
                </mxCell>
                <mxCell id="FXnHZkVsz2hOcZw9EoI9-82" style="edgeStyle=orthogonalEdgeStyle;rounded=0;orthogonalLoop=1;jettySize=auto;html=1;exitX=0.5;exitY=1;exitDx=0;exitDy=0;" parent="1" source="FXnHZkVsz2hOcZw9EoI9-83" target="FXnHZkVsz2hOcZw9EoI9-60" edge="1">
                    <mxGeometry relative="1" as="geometry"/>
                </mxCell>
                <mxCell id="FXnHZkVsz2hOcZw9EoI9-83" value="Confirmación de acción" style="rounded=1;whiteSpace=wrap;html=1;fontSize=12;glass=0;strokeWidth=1;shadow=0;fillColor=#ffe6cc;strokeColor=#d79b00;" parent="1" vertex="1">
                    <mxGeometry x="333" y="810" width="120" height="40" as="geometry"/>
                </mxCell>
                <mxCell id="ru9AIGyz30A5ls13B_LG-1" style="edgeStyle=orthogonalEdgeStyle;rounded=0;orthogonalLoop=1;jettySize=auto;html=1;exitX=1;exitY=0.5;exitDx=0;exitDy=0;entryX=0;entryY=0.5;entryDx=0;entryDy=0;" parent="1" source="oEenK_Bo5vY6mumrumCc-1" target="FXnHZkVsz2hOcZw9EoI9-27" edge="1">
                    <mxGeometry relative="1" as="geometry"/>
                </mxCell>
                <mxCell id="ru9AIGyz30A5ls13B_LG-2" style="edgeStyle=orthogonalEdgeStyle;rounded=0;orthogonalLoop=1;jettySize=auto;html=1;exitX=0.5;exitY=1;exitDx=0;exitDy=0;" parent="1" source="oEenK_Bo5vY6mumrumCc-1" target="FXnHZkVsz2hOcZw9EoI9-29" edge="1">
                    <mxGeometry relative="1" as="geometry"/>
                </mxCell>
                <mxCell id="oEenK_Bo5vY6mumrumCc-1" value="Visualizar detalle de producto" style="rounded=1;whiteSpace=wrap;html=1;fontSize=12;glass=0;strokeWidth=1;shadow=0;fillColor=#ffe6cc;strokeColor=#d79b00;" parent="1" vertex="1">
                    <mxGeometry x="1000" y="700" width="120" height="40" as="geometry"/>
                </mxCell>
            </root>
        </mxGraphModel>
    </diagram>
</mxfile>